<svg width="36" height="36" viewBox="0 0 36 36" fill="none" xmlns="http://www.w3.org/2000/svg">
<path fill-rule="evenodd" clip-rule="evenodd" d="M18.533 4.95264C18.1678 4.849 17.7826 4.8491 17.4173 4.95304C16.6396 5.17436 15.8546 5.37934 15.0668 5.58502C11.5513 6.50291 7.68055 7.51355 4.36939 10.2156L2.80822 11.4895C1.56331 12.5054 1.56397 14.4949 2.80995 15.5098L4.34587 16.7607C5.48056 17.6849 6.66312 18.4079 7.875 18.9974V25.9409C7.875 27.6408 8.91783 29.1667 10.5017 29.7841L16.5017 32.1233C17.4652 32.499 18.5348 32.499 19.4983 32.1233L25.4983 29.7841C27.0822 29.1667 28.125 27.6408 28.125 25.9409V19.0099C29.3288 18.4234 30.5035 17.7042 31.6306 16.7844L31.875 16.585V24C31.875 24.6213 32.3787 25.125 33 25.125C33.6213 25.125 34.125 24.6213 34.125 24V13.5C34.1247 12.7488 33.813 11.9977 33.19 11.4902L31.6541 10.2393C28.3189 7.52274 24.2855 6.47078 20.8788 5.58229C20.0928 5.37728 19.3093 5.17294 18.533 4.95264ZM12.4487 19.2184C11.879 18.9705 11.2162 19.2315 10.9684 19.8013C10.7206 20.3711 10.9815 21.0338 11.5513 21.2816C13.4681 22.1153 15.4522 22.7974 17.4856 23.3193C17.8399 23.4102 18.2116 23.4101 18.566 23.3189C20.5939 22.797 22.5721 22.1149 24.4828 21.2811C25.0523 21.0326 25.3125 20.3695 25.064 19.8001C24.8155 19.2306 24.1524 18.9704 23.5829 19.2189C21.788 20.0021 19.9298 20.6434 18.0251 21.1348C16.1145 20.6433 14.2501 20.0018 12.4487 19.2184Z" fill="black"/>
</svg>
